<svg width="250" height="64" viewBox="0 0 250 64" fill="none" xmlns="http://www.w3.org/2000/svg">
<g filter="url(#filter0_d)">
<path d="M51.9091 27.5455C54.5455 11.6364 45.7273 2.81818 32.7273 2.81818C20.3636 2.81818 9.36364 10.9091 6.90909 26.0909C4.27273 41.9091 13.0909 50.6364 26.1818 50.6364C28.7955 50.6364 31.3409 50.2727 33.7727 49.5682L36.4545 53.4545H47.6364L42.1591 45.2045C47.0227 41.3409 50.5909 35.4318 51.9091 27.5455ZM23.9091 32.7273L27.8864 39.5682C27.4773 39.6136 27.0682 39.6364 26.6364 39.6364C20.8182 39.6364 18.1818 35.6364 19.6364 27.5455C21 18.9091 25.5455 13.8182 32.2727 13.8182C38.1818 13.8182 40.4545 18.0909 39.1818 26.0909C38.5227 30 37.25 33.1591 35.4318 35.4318L33.7273 32.7273H23.9091ZM78.304 34.7273C77.7813 38.1818 75.4177 40.2727 72.304 40.2727C69.145 40.2727 67.6904 38.1818 68.2131 34.7273L71.4859 15.0909H58.9404L55.2131 37.3636C53.9631 45 57.8722 50.4545 65.2131 50.4545C70.4177 50.4545 74.9631 47.8182 77.1222 43.3636H77.4859L76.395 50H88.304L94.1222 15.0909H81.5768L78.304 34.7273ZM110.324 50.6364C121.688 50.6364 129.619 43.3636 131.415 32.6364C133.165 21.9091 127.642 14.6364 116.324 14.6364C104.915 14.6364 96.9831 21.9091 95.2331 32.6364C93.4376 43.3636 98.9604 50.6364 110.324 50.6364ZM111.869 41.3636C108.574 41.3636 107.142 38.0227 108.051 32.5455C108.938 27.0682 111.506 23.7273 114.779 23.7273C118.051 23.7273 119.483 27.0682 118.597 32.5455C117.688 38.0227 115.119 41.3636 111.869 41.3636ZM132.509 50H145.054L146.691 40.1136L148.963 37.7273L154.054 50H168.418L159.486 30.4091L173.872 15.0909H159.781L149.327 26.8182H148.895L152.781 3.45454H140.236L132.509 50ZM170.233 50H182.779L184.415 40.1136L186.688 37.7273L191.779 50H206.142L197.21 30.4091L211.597 15.0909H197.506L187.051 26.8182H186.62L190.506 3.45454H177.96L170.233 50ZM217.594 50.5455C222.14 50.5455 225.867 49 228.594 45.0909H228.867L228.049 50H239.776L243.776 26.0909C244.867 19.6364 239.503 14.6364 229.594 14.6364C219.14 14.6364 213.049 20.0909 211.594 26.4545H223.14C223.776 24.2727 225.594 23.2727 227.958 23.2727C230.14 23.2727 231.503 24.2727 231.23 26.0909V26.1818C230.867 28.1818 228.503 28.8182 222.594 29.2727C215.321 29.8182 209.23 32.7273 207.958 40.3636C206.776 47.2727 210.958 50.5455 217.594 50.5455ZM223.049 42.6364C220.867 42.6364 219.594 41.5455 219.867 39.6364C220.14 37.8182 221.685 36.4545 224.685 36C226.685 35.6364 228.503 35.2727 229.867 34.7273L229.412 37.6364C228.867 40.8182 225.867 42.6364 223.049 42.6364Z" fill="white"/>
<path d="M51.9091 27.5455L53.8817 27.8752L53.8822 27.8724L51.9091 27.5455ZM6.90909 26.0909L8.8819 26.4197L8.88345 26.4101L6.90909 26.0909ZM33.7727 49.5682L35.4188 48.4323L34.6004 47.2462L33.2162 47.6472L33.7727 49.5682ZM36.4545 53.4545L34.8084 54.5905L35.4047 55.4545H36.4545V53.4545ZM47.6364 53.4545V55.4545H51.3648L49.3026 52.3483L47.6364 53.4545ZM42.1591 45.2045L40.9151 43.6385L39.4771 44.7808L40.4929 46.3108L42.1591 45.2045ZM23.9091 32.7273V30.7273H20.4328L22.1801 33.7325L23.9091 32.7273ZM27.8864 39.5682L28.1072 41.5559L31.1584 41.2169L29.6154 38.5629L27.8864 39.5682ZM19.6364 27.5455L21.6048 27.8993L21.6086 27.8784L21.6119 27.8574L19.6364 27.5455ZM39.1818 26.0909L41.154 26.4234L41.1555 26.4143L41.157 26.4051L39.1818 26.0909ZM35.4318 35.4318L33.7398 36.4982L35.2381 38.8755L36.9936 36.6812L35.4318 35.4318ZM33.7273 32.7273L35.4193 31.6609L34.8308 30.7273H33.7273V32.7273ZM53.8822 27.8724C55.2683 19.5082 53.6854 12.6884 49.7172 7.93431C45.7525 3.18436 39.674 0.81818 32.7273 0.81818V4.81818C38.7806 4.81818 43.6111 6.86109 46.6464 10.4975C49.6782 14.1298 51.1863 19.6736 49.936 27.2185L53.8822 27.8724ZM32.7273 0.81818C19.3812 0.81818 7.54573 9.62219 4.93473 25.7717L8.88345 26.4101C11.1815 12.196 21.3461 4.81818 32.7273 4.81818V0.81818ZM4.9363 25.7621C3.54938 34.0837 5.13295 40.8637 9.11953 45.5857C13.0997 50.3 19.2004 52.6364 26.1818 52.6364V48.6364C20.0723 48.6364 15.2185 46.609 12.1759 43.0053C9.13978 39.409 7.63244 33.9163 8.88188 26.4197L4.9363 25.7621ZM26.1818 52.6364C28.982 52.6364 31.7149 52.2466 34.3293 51.4892L33.2162 47.6472C30.967 48.2988 28.609 48.6364 26.1818 48.6364V52.6364ZM32.1266 50.7041L34.8084 54.5905L38.1007 52.3186L35.4188 48.4323L32.1266 50.7041ZM36.4545 55.4545H47.6364V51.4545H36.4545V55.4545ZM49.3026 52.3483L43.8253 44.0983L40.4929 46.3108L45.9701 54.5608L49.3026 52.3483ZM43.4031 46.7706C48.6939 42.5676 52.4907 36.1971 53.8817 27.8752L49.9365 27.2157C48.6911 34.6665 45.3515 40.1142 40.9151 43.6385L43.4031 46.7706ZM22.1801 33.7325L26.1573 40.5734L29.6154 38.5629L25.6381 31.722L22.1801 33.7325ZM27.6655 37.5804C27.3313 37.6175 26.996 37.6364 26.6364 37.6364V41.6364C27.1404 41.6364 27.6232 41.6097 28.1072 41.5559L27.6655 37.5804ZM26.6364 37.6364C24.2119 37.6364 22.8686 36.8392 22.1249 35.5974C21.2876 34.1993 20.9106 31.7609 21.6048 27.8993L17.6679 27.1916C16.9076 31.4209 17.1215 35.028 18.6933 37.6526C20.3587 40.4336 23.2426 41.6364 26.6364 41.6364V37.6364ZM21.6119 27.8574C22.2533 23.795 23.6137 20.7702 25.4202 18.7917C27.1861 16.8576 29.4668 15.8182 32.2727 15.8182V11.8182C28.3513 11.8182 24.9957 13.3242 22.4662 16.0946C19.9772 18.8207 18.383 22.6596 17.6608 27.2335L21.6119 27.8574ZM32.2727 15.8182C34.6887 15.8182 35.9593 16.6412 36.6717 17.925C37.4938 19.4064 37.8188 21.929 37.2067 25.7767L41.157 26.4051C41.8176 22.2529 41.6426 18.6391 40.1692 15.9841C38.5862 13.1315 35.7659 11.8182 32.2727 11.8182V15.8182ZM37.2097 25.7584C36.588 29.4452 35.4139 32.2527 33.8701 34.1824L36.9936 36.6812C39.0861 34.0655 40.4574 30.5548 41.154 26.4234L37.2097 25.7584ZM37.1238 34.3654L35.4193 31.6609L32.0353 33.7937L33.7398 36.4982L37.1238 34.3654ZM33.7273 30.7273H23.9091V34.7273H33.7273V30.7273ZM78.304 34.7273L76.3313 34.3985L76.3288 34.4132L76.3266 34.428L78.304 34.7273ZM68.2131 34.7273L66.2403 34.3985L66.2379 34.4132L66.2356 34.428L68.2131 34.7273ZM71.4859 15.0909L73.4586 15.4197L73.8468 13.0909H71.4859V15.0909ZM58.9404 15.0909V13.0909H57.2473L56.9678 14.7608L58.9404 15.0909ZM55.2131 37.3636L53.2406 37.0335L53.2394 37.0406L55.2131 37.3636ZM77.1222 43.3636V41.3636H75.8691L75.3225 42.4913L77.1222 43.3636ZM77.4859 43.3636L79.4594 43.688L79.8415 41.3636H77.4859V43.3636ZM76.395 50L74.4214 49.6756L74.0393 52H76.395V50ZM88.304 50V52H89.9983L90.2768 50.3288L88.304 50ZM94.1222 15.0909L96.095 15.4197L96.4831 13.0909H94.1222V15.0909ZM81.5768 15.0909V13.0909H79.8825L79.604 14.7621L81.5768 15.0909ZM76.3266 34.428C76.1235 35.7703 75.5867 36.7163 74.9271 37.3185C74.2745 37.9144 73.3958 38.2727 72.304 38.2727V42.2727C74.326 42.2727 76.1859 41.5856 77.6242 40.2724C79.0555 38.9656 79.9619 37.1388 80.2815 35.0265L76.3266 34.428ZM72.304 38.2727C71.1762 38.2727 70.7145 37.9208 70.4962 37.6203C70.2282 37.2513 69.9722 36.4701 70.1906 35.0265L66.2356 34.428C65.9314 36.439 66.1412 38.4306 67.2596 39.9707C68.4277 41.5792 70.2728 42.2727 72.304 42.2727V38.2727ZM70.1859 35.0561L73.4586 15.4197L69.5131 14.7621L66.2403 34.3985L70.1859 35.0561ZM71.4859 13.0909H58.9404V17.0909H71.4859V13.0909ZM56.9678 14.7608L53.2406 37.0335L57.1857 37.6937L60.913 15.421L56.9678 14.7608ZM53.2394 37.0406C52.5514 41.2438 53.2439 45.1092 55.3915 47.9727C57.5679 50.8746 61.0204 52.4545 65.2131 52.4545V48.4545C62.0649 48.4545 59.8924 47.3073 58.5915 45.5727C57.2619 43.7999 56.6249 41.1198 57.1869 37.6867L53.2394 37.0406ZM65.2131 52.4545C71.1011 52.4545 76.3939 49.4518 78.922 44.236L75.3225 42.4913C73.5324 46.1845 69.7342 48.4545 65.2131 48.4545V52.4545ZM77.1222 45.3636H77.4859V41.3636H77.1222V45.3636ZM75.5124 43.0392L74.4214 49.6756L78.3685 50.3244L79.4594 43.688L75.5124 43.0392ZM76.395 52H88.304V48H76.395V52ZM90.2768 50.3288L96.095 15.4197L92.1494 14.7621L86.3313 49.6712L90.2768 50.3288ZM94.1222 13.0909H81.5768V17.0909H94.1222V13.0909ZM79.604 14.7621L76.3313 34.3985L80.2768 35.0561L83.5496 15.4197L79.604 14.7621ZM131.415 32.6364L133.387 32.9665L133.389 32.9584L131.415 32.6364ZM95.2331 32.6364L97.2057 32.9665L97.207 32.9584L95.2331 32.6364ZM108.051 32.5455L110.024 32.8729L110.026 32.8649L108.051 32.5455ZM118.597 32.5455L120.57 32.8729L120.571 32.8649L118.597 32.5455ZM110.324 52.6364C122.713 52.6364 131.439 44.609 133.387 32.9665L129.442 32.3062C127.8 42.1182 120.662 48.6364 110.324 48.6364V52.6364ZM133.389 32.9584C134.326 27.2119 133.361 22.0777 130.32 18.3495C127.265 14.6044 122.409 12.6364 116.324 12.6364V16.6364C121.557 16.6364 125.121 18.3047 127.22 20.8778C129.333 23.4678 130.254 27.3335 129.441 32.3144L133.389 32.9584ZM116.324 12.6364C103.893 12.6364 95.1603 20.661 93.2592 32.3144L97.207 32.9584C98.8059 23.1572 105.937 16.6364 116.324 16.6364V12.6364ZM93.2605 32.3062C92.2986 38.0537 93.2506 43.1918 96.294 46.9232C99.3503 50.6702 104.219 52.6364 110.324 52.6364V48.6364C105.065 48.6364 101.491 46.9661 99.3937 44.395C97.2838 41.8082 96.3722 37.9463 97.2057 32.9665L93.2605 32.3062ZM111.869 39.3636C111.396 39.3636 111.094 39.2486 110.883 39.1049C110.667 38.9567 110.426 38.6942 110.22 38.2157C109.782 37.2021 109.598 35.4412 110.024 32.8729L106.078 32.218C105.595 35.1269 105.673 37.7752 106.548 39.8013C106.997 40.8427 107.676 41.7578 108.626 42.4072C109.583 43.061 110.695 43.3636 111.869 43.3636V39.3636ZM110.026 32.8649C110.435 30.3362 111.208 28.4754 112.109 27.2971C112.987 26.1485 113.906 25.7273 114.779 25.7273V21.7273C112.378 21.7273 110.377 22.9765 108.931 24.8677C107.508 26.7292 106.554 29.2774 106.077 32.226L110.026 32.8649ZM114.779 25.7273C115.243 25.7273 115.54 25.8407 115.748 25.9835C115.963 26.1312 116.203 26.3942 116.411 26.8752C116.851 27.8928 117.038 29.657 116.622 32.226L120.571 32.8649C121.042 29.9566 120.957 27.3118 120.083 25.2896C119.635 24.2507 118.959 23.3362 118.013 22.6863C117.059 22.0314 115.95 21.7273 114.779 21.7273V25.7273ZM116.624 32.218C116.204 34.7487 115.425 36.6128 114.522 37.7938C113.641 38.9468 112.726 39.3636 111.869 39.3636V43.3636C114.263 43.3636 116.257 42.11 117.7 40.2232C119.121 38.3645 120.081 35.8194 120.57 32.8729L116.624 32.218ZM132.509 50L130.536 49.6725L130.149 52H132.509V50ZM145.054 50V52H146.75L147.027 50.3266L145.054 50ZM146.691 40.1136L145.242 38.7343L144.818 39.1799L144.717 39.787L146.691 40.1136ZM148.963 37.7273L150.811 36.961L149.634 34.1234L147.515 36.348L148.963 37.7273ZM154.054 50L152.207 50.7663L152.719 52H154.054V50ZM168.418 50V52H171.528L170.238 49.1703L168.418 50ZM159.486 30.4091L158.028 29.0399L157.11 30.0179L157.666 31.2388L159.486 30.4091ZM173.872 15.0909L175.33 16.4601L178.494 13.0909H173.872V15.0909ZM159.781 15.0909V13.0909H158.885L158.289 13.76L159.781 15.0909ZM149.327 26.8182V28.8182H150.223L150.82 28.1491L149.327 26.8182ZM148.895 26.8182L146.922 26.49L146.535 28.8182H148.895V26.8182ZM152.781 3.45454L154.754 3.78272L155.142 1.45454H152.781V3.45454ZM140.236 3.45454V1.45454H138.541L138.263 3.127L140.236 3.45454ZM132.509 52H145.054V48H132.509V52ZM147.027 50.3266L148.664 40.4402L144.717 39.787L143.081 49.6734L147.027 50.3266ZM148.139 41.4929L150.412 39.1066L147.515 36.348L145.242 38.7343L148.139 41.4929ZM147.116 38.4936L152.207 50.7663L155.902 49.2337L150.811 36.961L147.116 38.4936ZM154.054 52H168.418V48H154.054V52ZM170.238 49.1703L161.306 29.5794L157.666 31.2388L166.598 50.8297L170.238 49.1703ZM160.944 31.7783L175.33 16.4601L172.414 13.7217L158.028 29.0399L160.944 31.7783ZM173.872 13.0909H159.781V17.0909H173.872V13.0909ZM158.289 13.76L147.834 25.4873L150.82 28.1491L161.274 16.4218L158.289 13.76ZM149.327 24.8182H148.895V28.8182H149.327V24.8182ZM150.868 27.1464L154.754 3.78272L150.809 3.12637L146.922 26.49L150.868 27.1464ZM152.781 1.45454H140.236V5.45454H152.781V1.45454ZM138.263 3.127L130.536 49.6725L134.482 50.3275L142.209 3.78209L138.263 3.127ZM170.233 50L168.26 49.6725L167.874 52H170.233V50ZM182.779 50V52H184.475L184.752 50.3266L182.779 50ZM184.415 40.1136L182.967 38.7343L182.542 39.1799L182.442 39.787L184.415 40.1136ZM186.688 37.7273L188.535 36.961L187.358 34.1234L185.239 36.348L186.688 37.7273ZM191.779 50L189.931 50.7663L190.443 52H191.779V50ZM206.142 50V52H209.252L207.962 49.1703L206.142 50ZM197.21 30.4091L195.753 29.0399L194.834 30.0179L195.391 31.2388L197.21 30.4091ZM211.597 15.0909L213.055 16.4601L216.219 13.0909H211.597V15.0909ZM197.506 15.0909V13.0909H196.61L196.013 13.76L197.506 15.0909ZM187.051 26.8182V28.8182H187.948L188.544 28.1491L187.051 26.8182ZM186.62 26.8182L184.647 26.49L184.259 28.8182H186.62V26.8182ZM190.506 3.45454L192.479 3.78272L192.866 1.45454H190.506V3.45454ZM177.96 3.45454V1.45454H176.265L175.988 3.127L177.96 3.45454ZM170.233 52H182.779V48H170.233V52ZM184.752 50.3266L186.388 40.4402L182.442 39.787L180.806 49.6734L184.752 50.3266ZM185.863 41.4929L188.136 39.1066L185.239 36.348L182.967 38.7343L185.863 41.4929ZM184.84 38.4936L189.931 50.7663L193.626 49.2337L188.535 36.961L184.84 38.4936ZM191.779 52H206.142V48H191.779V52ZM207.962 49.1703L199.03 29.5794L195.391 31.2388L204.323 50.8297L207.962 49.1703ZM198.668 31.7783L213.055 16.4601L210.139 13.7217L195.753 29.0399L198.668 31.7783ZM211.597 13.0909H197.506V17.0909H211.597V13.0909ZM196.013 13.76L185.559 25.4873L188.544 28.1491L198.999 16.4218L196.013 13.76ZM187.051 24.8182H186.62V28.8182H187.051V24.8182ZM188.592 27.1464L192.479 3.78272L188.533 3.12637L184.647 26.49L188.592 27.1464ZM190.506 1.45454H177.96V5.45454H190.506V1.45454ZM175.988 3.127L168.26 49.6725L172.206 50.3275L179.933 3.78209L175.988 3.127ZM228.594 45.0909V43.0909H227.551L226.954 43.9465L228.594 45.0909ZM228.867 45.0909L230.84 45.4197L231.228 43.0909H228.867V45.0909ZM228.049 50L226.076 49.6712L225.688 52H228.049V50ZM239.776 50V52H241.469L241.748 50.33L239.776 50ZM243.776 26.0909L241.804 25.7576L241.803 25.7609L243.776 26.0909ZM211.594 26.4545L209.644 26.0089L209.085 28.4545H211.594V26.4545ZM223.14 26.4545V28.4545H224.64L225.06 27.0145L223.14 26.4545ZM231.23 26.0909L229.253 25.7942L229.23 25.9417V26.0909H231.23ZM231.23 26.1818L233.198 26.5396L233.23 26.3622V26.1818H231.23ZM222.594 29.2727L222.744 31.2671L222.747 31.2668L222.594 29.2727ZM207.958 40.3636L209.929 40.7008L209.931 40.6924L207.958 40.3636ZM219.867 39.6364L217.889 39.3397L217.887 39.3535L219.867 39.6364ZM224.685 36L224.985 37.9774L225.014 37.973L225.043 37.9677L224.685 36ZM229.867 34.7273L231.843 35.036L232.385 31.5659L229.124 32.8703L229.867 34.7273ZM229.412 37.6364L231.384 37.9743L231.386 37.9597L231.388 37.9451L229.412 37.6364ZM217.594 52.5455C222.678 52.5455 227.071 50.7688 230.234 46.2353L226.954 43.9465C224.662 47.2312 221.601 48.5455 217.594 48.5455V52.5455ZM228.594 47.0909H228.867V43.0909H228.594V47.0909ZM226.894 44.7621L226.076 49.6712L230.021 50.3288L230.84 45.4197L226.894 44.7621ZM228.049 52H239.776V48H228.049V52ZM241.748 50.33L245.748 26.4209L241.803 25.7609L237.803 49.67L241.748 50.33ZM245.748 26.4242C246.411 22.5005 245.085 18.9274 242.098 16.4132C239.183 13.959 234.85 12.6364 229.594 12.6364V16.6364C234.247 16.6364 237.551 17.8137 239.522 19.4732C241.422 21.0726 242.232 23.2268 241.804 25.7576L245.748 26.4242ZM229.594 12.6364C218.386 12.6364 211.344 18.5717 209.644 26.0089L213.544 26.9002C214.753 21.6101 219.893 16.6364 229.594 16.6364V12.6364ZM211.594 28.4545H223.14V24.4545H211.594V28.4545ZM225.06 27.0145C225.248 26.3695 225.571 25.9873 225.967 25.7375C226.397 25.467 227.045 25.2727 227.958 25.2727V21.2727C226.507 21.2727 225.064 21.5785 223.835 22.3534C222.572 23.1491 221.668 24.3578 221.22 25.8945L225.06 27.0145ZM227.958 25.2727C228.795 25.2727 229.156 25.4721 229.243 25.5439C229.26 25.5579 229.264 25.564 229.261 25.5603C229.26 25.5588 229.258 25.5566 229.257 25.5541C229.256 25.5515 229.255 25.5501 229.255 25.5504C229.256 25.5507 229.257 25.5543 229.258 25.5618C229.26 25.5695 229.262 25.5822 229.263 25.6008C229.266 25.6379 229.267 25.701 229.253 25.7942L233.208 26.3876C233.437 24.8659 232.969 23.4307 231.786 22.4561C230.714 21.5733 229.302 21.2727 227.958 21.2727V25.2727ZM229.23 26.0909V26.1818H233.23V26.0909H229.23ZM229.263 25.824C229.244 25.9296 229.222 25.9559 229.179 25.997C229.099 26.0731 228.88 26.2331 228.35 26.4126C227.244 26.7872 225.414 27.0499 222.441 27.2786L222.747 31.2668C225.683 31.041 227.989 30.7582 229.634 30.201C230.479 29.9146 231.288 29.5121 231.939 28.8922C232.626 28.2373 233.036 27.434 233.198 26.5396L229.263 25.824ZM222.445 27.2783C218.617 27.5654 214.893 28.4848 211.906 30.5017C208.852 32.5645 206.71 35.6857 205.985 40.0348L209.931 40.6924C210.478 37.4052 212.018 35.2537 214.145 33.8165C216.341 32.3334 219.298 31.5255 222.744 31.2671L222.445 27.2783ZM205.986 40.0264C205.318 43.9338 206.123 47.2141 208.449 49.4784C210.696 51.6664 214.003 52.5455 217.594 52.5455V48.5455C214.549 48.5455 212.447 47.7882 211.239 46.6125C210.11 45.5132 209.416 43.7026 209.929 40.7008L205.986 40.0264ZM223.049 40.6364C222.247 40.6364 221.947 40.4317 221.89 40.3792C221.871 40.3615 221.862 40.3495 221.852 40.3177C221.839 40.2766 221.813 40.1554 221.847 39.9192L217.887 39.3535C217.676 40.8304 218.052 42.2855 219.184 43.3253C220.241 44.2956 221.668 44.6364 223.049 44.6364V40.6364ZM221.845 39.933C221.933 39.3435 222.427 38.3649 224.985 37.9774L224.385 34.0226C220.943 34.5442 218.346 36.2929 217.889 39.3397L221.845 39.933ZM225.043 37.9677C227.008 37.6105 229.028 37.2171 230.61 36.5842L229.124 32.8703C227.979 33.3284 226.362 33.6623 224.327 34.0323L225.043 37.9677ZM227.891 34.4185L227.436 37.3276L231.388 37.9451L231.843 35.036L227.891 34.4185ZM227.441 37.2984C227.1 39.286 225.151 40.6364 223.049 40.6364V44.6364C226.583 44.6364 230.633 42.3503 231.384 37.9743L227.441 37.2984Z" fill="black"/>
</g>
<defs>
<filter id="filter0_d" x="0.443161" y="0.818237" width="249.472" height="62.6364" filterUnits="userSpaceOnUse" color-interpolation-filters="sRGB">
<feFlood flood-opacity="0" result="BackgroundImageFix"/>
<feColorMatrix in="SourceAlpha" type="matrix" values="0 0 0 0 0 0 0 0 0 0 0 0 0 0 0 0 0 0 127 0" result="hardAlpha"/>
<feOffset dy="4"/>
<feGaussianBlur stdDeviation="2"/>
<feColorMatrix type="matrix" values="0 0 0 0 0 0 0 0 0 0 0 0 0 0 0 0 0 0 0.25 0"/>
<feBlend mode="normal" in2="BackgroundImageFix" result="effect1_dropShadow"/>
<feBlend mode="normal" in="SourceGraphic" in2="effect1_dropShadow" result="shape"/>
</filter>
</defs>
</svg>
